# xmcd
#
# Track frame offsets:
#	150
#	22003
#	41525
#	62203
#	86765
#	103338
#	122958
#	142428
#	157936
#	178075
#	193094
#	212476
#	234056
#	251840
#	267414
#	283678
#	304954
#	326312
#	340971
#
# Disc length: 4788 seconds
#
# Revision: 0
# Processed by: cddbd v1.5.2PL0 Copyright (c) Steve Scherf et al.
# Submitted via: EasyCDDAExtractor 12.1.0.1
#
DISCID=2612b213
DTITLE=Lou Rawls - Now Is The Time - Close Company
DYEAR=2010
DGENRE=Soul
TTITLE0=(Will You) Kiss Me One More Time
TTITLE1=Let Me Show You How
TTITLE2=Ain't That Love Baby
TTITLE3=When The Rain Comes Down
TTITLE4=Now Is The Time For Love
TTITLE5=Watch Your Back
TTITLE6=It's Too Late (To Say Goodbye)
TTITLE7=Back To You
TTITLE8=This Love
TTITLE9=All Time Lover
TTITLE10=In The Middle Of The Night
TTITLE11=Close Company
TTITLE12=Pretty Eyes
TTITLE13=When We Were Young
TTITLE14=Ready Or Not?
TTITLE15=Forever I Do (The Wedding Song)
TTITLE16=The Lady In My Life
TTITLE17=Say It Again
TTITLE18=Sunshine (When You Are Coming My Way)
EXTD=
EXTT0=
EXTT1=
EXTT2=
EXTT3=
EXTT4=
EXTT5=
EXTT6=
EXTT7=
EXTT8=
EXTT9=
EXTT10=
EXTT11=
EXTT12=
EXTT13=
EXTT14=
EXTT15=
EXTT16=
EXTT17=
EXTT18=
PLAYORDER=
